<svg width="1920" height="1080" viewBox="0 0 1920 1080" fill="none" xmlns="http://www.w3.org/2000/svg">
<path d="M550.85 422.301L502.642 609.62L689.972 657.829L738.18 470.509L550.85 422.301ZM633.985 563.042L597.418 553.633L606.827 517.067L643.394 526.476L633.985 563.042Z" fill="#000104"/>
<path d="M410.441 443.277C459.252 443.277 480.801 472.356 480.801 501.175C480.801 519.09 473.012 534.149 458.733 544.015C479.503 567.641 492.225 599.576 496.12 636.704H407.325C403.691 585.296 392.786 565.045 369.679 565.045V636.704H284V443.277H410.441ZM369.679 520.388H372.015C387.593 520.388 395.123 514.676 395.123 502.214C395.123 493.906 390.969 483.001 374.871 483.001H369.679V520.388Z" fill="#000104"/>
<path d="M879.14 443.277C941.711 443.277 954.174 474.953 954.174 497.281C954.174 513.118 948.462 527.658 928.989 538.822C953.395 551.804 959.366 566.603 959.366 583.219C959.366 613.077 938.336 636.704 893.16 636.704H758.151V443.277H879.14ZM843.83 519.869H845.907C864.601 519.869 871.611 514.676 871.611 500.916C871.611 490.271 866.418 482.222 849.023 482.222H843.83V519.869ZM843.83 594.124H846.426C866.158 594.124 873.688 588.672 873.688 574.132C873.688 561.41 867.716 552.323 849.802 552.323H843.83V594.124Z" fill="#000104"/>
<path d="M985.61 443.277H1071.29V588.152H1146.32V636.704H985.61V443.277Z" fill="#000104"/>
<path d="M1172.55 443.277V636.704H1365.97V443.277H1172.55ZM1288.12 558.855H1250.37V521.105H1288.12V558.855Z" fill="#000104"/>
<path d="M1389.09 443.277H1482.56L1511.12 478.847L1538.38 443.277H1631.33L1558.11 538.303L1636 636.704H1542.27L1511.64 598.278L1482.04 636.704H1389.09L1464.64 538.822L1389.09 443.277Z" fill="#000104"/>
</svg>
